HIERARCHY
ROOT hip
{
	OFFSET	0.00  0.00  0.00 
	CHANNELS 6 Xposition Yposition Zposition Xrotation Zrotation Yrotation
	JOINT abdomen
	{
		OFFSET	0.000000 3.402643 0.000000
		CHANNELS 3 Xrotation Zrotation Yrotation
		JOINT chest
		{
			OFFSET	0.000000 8.438564 -0.680529
			CHANNELS 3 Xrotation Zrotation Yrotation
			JOINT neck
			{
				OFFSET	0.000000 10.207942 -0.272212
				CHANNELS 3 Xrotation Zrotation Yrotation
				JOINT head
				{
					OFFSET	0.000000 3.130431 0.000000
					CHANNELS 3 Xrotation Zrotation Yrotation
					End Site
					{
						OFFSET 0.000000 3.130435 0.000000
					}
				}
			}
			JOINT lCollar
			{
				OFFSET	3.538753 6.669187 -0.816635
				CHANNELS 3 Yrotation Zrotation Xrotation
				JOINT lShldr
				{
					OFFSET	3.130435 0.000000 0.000000
					CHANNELS 3 Zrotation Yrotation Xrotation
					JOINT lForeArm
					{
						OFFSET	10.207940 0.000000 0.000000
						CHANNELS 3 Yrotation Zrotation Xrotation
						JOINT lHand
						{
							OFFSET	8.302459 0.000000 0.000000
							CHANNELS 3 Zrotation Yrotation Xrotation
							End Site
							{
								OFFSET 4.083176 0.000000 0.000000
							}
						}
					}
				}
			}
			JOINT rCollar
			{
				OFFSET	-3.538753 6.669187 -0.816635
				CHANNELS 3 Yrotation Zrotation Xrotation
				JOINT rShldr
				{
					OFFSET	-3.130435 0.000000 0.000000
					CHANNELS 3 Zrotation Yrotation Xrotation
					JOINT rForeArm
					{
						OFFSET	-10.207940 0.000000 0.000000
						CHANNELS 3 Yrotation Zrotation Xrotation
						JOINT rHand
						{
							OFFSET	-8.302459 0.000000 0.000000
							CHANNELS 3 Zrotation Yrotation Xrotation
							End Site
							{
								OFFSET -4.083176 0.000000 0.000000
							}
						}
					}
				}
			}
		}
	}
	JOINT lThigh
	{
		OFFSET	5.308129 -1.633274 1.361059
		CHANNELS 3 Xrotation Zrotation Yrotation
		JOINT lShin
		{
			OFFSET	-2.041588 -20.007561 0.000000
			CHANNELS 3 Xrotation Zrotation Yrotation
			JOINT lFoot
			{
				OFFSET	0.000000 -19.190928 -1.224953
				CHANNELS 3 Xrotation Yrotation Zrotation
				End Site
				{
					OFFSET 0.000000 -2.449905 4.627600
				}
			}
		}
	}
	JOINT rThigh
	{
		OFFSET	-5.308129 -1.633274 1.361059
		CHANNELS 3 Xrotation Zrotation Yrotation
		JOINT rShin
		{
			OFFSET	2.041588 -20.007561 0.000000
			CHANNELS 3 Xrotation Zrotation Yrotation
			JOINT rFoot
			{
				OFFSET	0.000000 -19.190928 -1.224953
				CHANNELS 3 Xrotation Yrotation Zrotation
				End Site
				{
					OFFSET 0.000000 -2.449905 4.627600
				}
			}
		}
	}
}
MOTION
Frames:     2
Frame Time: 0.033333
0.000000 43.689983 0.000000 0.000000 0.000000 0.000000 -0.341797 0.000000 0.000000 -0.429804 0.000000 -0.449113 0.000000 0.000000 0.000000 0.000000 0.000000 0.000000 0.281988 -8.000000 -0.002729 0.000000 -4.000000 0.000000 -8.000000 0.000000 0.000000 -7.000000 0.000000 0.000000 0.000000 8.000000 -0.194249 -0.260207 4.000000 -0.449221 8.000000 0.000000 0.000000 7.000000 0.000000 0.000000 -5.121420 4.965990 0.036196 10.211700 -1.980580 -0.079563 13.613300 2.331490 5.490040 -5.122590 -5.419650 -0.144222 10.347700 2.290680 0.119386 14.681200 -1.728560 -5.011670 
0.129703 43.818508 0.030373 -107.000000 0.000000 0.000000 17.783199 -0.009766 -0.009765 3.554690 -0.009766 -0.449214 -14.000000 0.000000 0.000000 -3.000000 0.000000 0.000000 0.009716 -16.003700 -0.205078 -57.874699 -6.997130 34.513199 -0.000229 -0.127188 19.990200 -7.013800 -0.089957 26.200001 -0.009674 15.996400 -0.207769 59.991001 6.992720 43.532398 96.109299 -4.842830 19.970400 49.013802 33.090000 -16.999901 -24.303900 0.947318 -3.886480 87.227303 -3.115090 0.067819 41.380100 5.728650 6.153060 21.699100 0.063471 3.867040 -7.770900 3.110580 -0.079623 14.413380 -5.666090 -6.116120 
